<mxfile host="app.diagrams.net" modified="2023-05-27T14:31:33.971Z" agent="Mozilla/5.0 (Windows NT 10.0; Win64; x64; rv:109.0) Gecko/20100101 Firefox/113.0" version="21.3.4" etag="3L25EEHJ65frl0iJZEeF" type="github">
  <diagram name="第 1 页" id="UdME463yDwUu2ILqdi3p">
    <mxGraphModel>
      <root>
        <mxCell id="0" />
        <mxCell id="1" parent="0" />
      </root>
    </mxGraphModel>
  </diagram>
</mxfile>
